<?xml version="1.0" encoding="UTF-8"?>
<svg version="1.1" xmlns="http://www.w3.org/2000/svg" width="357" height="359">
<path d="M0 0 C1.41403359 0.16947219 2.83116259 0.31456824 4.25 0.4375 C8.07441943 1.01116291 8.68196737 1.21836084 11 4 C11.598125 4.144375 12.19625 4.28875 12.8125 4.4375 C16.04811639 5.26951564 18.35082865 7.01312149 21 9 C21 9.66 21 10.32 21 11 C21.99 11.33 22.98 11.66 24 12 C24 12.66 24 13.32 24 14 C25.98 14.33 27.96 14.66 30 15 C30.66 13.68 31.32 12.36 32 11 C32.99 11 33.98 11 35 11 C35.33 10.01 35.66 9.02 36 8 C37.63671875 6.9375 37.63671875 6.9375 39.6875 6 C40.77611328 5.49339844 40.77611328 5.49339844 41.88671875 4.9765625 C42.58410156 4.65429688 43.28148438 4.33203125 44 4 C44.99 3.46375 45.98 2.9275 47 2.375 C50.62978648 0.71134786 54.1128563 -0.0929998 58 -1 C58.66 -1.33 59.32 -1.66 60 -2 C69.83697572 -2.52843258 78.68617581 -2.49268407 88 1 C88.66 1 89.32 1 90 1 C90.433125 1.45375 90.86625 1.9075 91.3125 2.375 C93.4525073 4.43574777 95.12510611 5.2470516 98 6 C100.57616923 5.16953416 100.57616923 5.16953416 103 4 C104.32 4 105.64 4 107 4 C107 3.34 107 2.68 107 2 C120.0296544 -4.5148272 138.2356609 -2.1517364 151.69921875 1.18359375 C154 2 154 2 155 4 C157.30965848 5.05352843 159.6429774 6.05719096 162 7 C162 7.66 162 8.32 162 9 C162.5775 9.061875 163.155 9.12375 163.75 9.1875 C166.93568953 10.33788789 168.02675223 12.28678431 170 15 C171.11375 16.3921875 171.11375 16.3921875 172.25 17.8125 C172.8275 18.534375 173.405 19.25625 174 20 C174.556875 19.2575 175.11375 18.515 175.6875 17.75 C177.95459804 15.05399151 180.10752392 13.00248344 183 11 C183.99 11 184.98 11 186 11 C186.33 10.01 186.66 9.02 187 8 C190.0051552 5.60953564 192.00672335 4.08637188 195.875 3.75 C196.57625 3.8325 197.2775 3.915 198 4 C198.33 3.01 198.66 2.02 199 1 C200.9609375 0.3046875 200.9609375 0.3046875 203.375 -0.125 C206.03732753 -0.61930837 208.4199702 -1.13999007 211 -2 C213.9753321 -2.2240064 216.9545727 -2.18514195 219.9375 -2.1875 C220.74896484 -2.19974609 221.56042969 -2.21199219 222.39648438 -2.22460938 C223.57500977 -2.22750977 223.57500977 -2.22750977 224.77734375 -2.23046875 C225.49140381 -2.23457764 226.20546387 -2.23868652 226.94116211 -2.24291992 C229.32049483 -1.96218518 230.90573392 -1.13285603 233 0 C235.66353755 0.51520982 238.29499131 0.72949913 241 1 C241 1.99 241 2.98 241 4 C242.65 4 244.3 4 246 4 C246 4.66 246 5.32 246 6 C247.98 6.66 249.96 7.32 252 8 C252 8.99 252 9.98 252 11 C252.86625 11.12375 252.86625 11.12375 253.75 11.25 C256.72576056 12.24192019 258.03998366 13.56687627 260 16 C260.75 18.75 260.75 18.75 261 21 C261.99 21.33 262.98 21.66 264 22 C267.25785191 27.17423539 268.18284751 33.04646044 269 39 C269.33 39.33 269.66 39.66 270 40 C270.08685603 41.56172745 270.10702219 43.12729344 270.09765625 44.69140625 C270.09443359 45.63564453 270.09121094 46.57988281 270.08789062 47.55273438 C270.07951172 48.54595703 270.07113281 49.53917969 270.0625 50.5625 C270.05798828 51.55958984 270.05347656 52.55667969 270.04882812 53.58398438 C270.03700007 56.05604849 270.02051849 58.52799518 270 61 C269.34 61 268.68 61 268 61 C267.95101563 61.90363281 267.90203125 62.80726562 267.8515625 63.73828125 C267.77679688 64.91777344 267.70203125 66.09726563 267.625 67.3125 C267.55539062 68.48425781 267.48578125 69.65601562 267.4140625 70.86328125 C267 74 267 74 265 77 C264.67 78.19625 264.34 79.3925 264 80.625 C263.67 81.73875 263.34 82.8525 263 84 C262.34 84.33 261.68 84.66 261 85 C260.34444881 87.52733235 260.34444881 87.52733235 260 90 C258.515 90.495 258.515 90.495 257 91 C256.87625 91.78375 256.7525 92.5675 256.625 93.375 C256 96 256 96 254 98 C252.98758315 99.32392972 251.98560611 100.65599167 251 102 C252.10859375 101.97679688 253.2171875 101.95359375 254.359375 101.9296875 C255.82290992 101.91092423 257.28645214 101.89272463 258.75 101.875 C259.84441406 101.84986328 259.84441406 101.84986328 260.9609375 101.82421875 C264.8044624 101.78927761 267.74606772 101.82500316 271 104 C271.02722517 106.20826378 271.04649729 108.41662638 271.0625 110.625 C271.07410156 111.85476562 271.08570313 113.08453125 271.09765625 114.3515625 C271.00863924 117.67723791 270.63686087 120.74047588 270 124 C269.34 124 268.68 124 268 124 C267.67 128.62 267.34 133.24 267 138 C267.33 138 267.66 138 268 138 C268.042721 139.66611905 268.04063832 141.33382885 268 143 C267.67 143.33 267.34 143.66 267 144 C266.92088336 145.93689263 266.86170864 147.87461687 266.8125 149.8125 C266.39081857 155.62617355 266.39081857 155.62617355 263.125 158.75 C260 160 260 160 257 160 C257 160.66 257 161.32 257 162 C256.34 162 255.68 162 255 162 C255 162.66 255 163.32 255 164 C260.28 164 265.56 164 271 164 C272.23004718 167.69014155 271.97988493 170.93251691 271.75 174.75 C271.72292969 175.4409375 271.69585937 176.131875 271.66796875 176.84375 C271.37549325 181.863007 270.10461179 185.44548856 268 190 C267.20046972 193.35231626 266.64166075 196.6860894 267.5625 200.0625 C268.56997611 204.5241799 266.28155456 208.54247385 264 212.25 C263.34 213.1575 262.68 214.065 262 215 C261.34 215.99 260.68 216.98 260 218 C253.6241244 220.55035024 246.79998459 221.44262421 240 222 C240 224.31 240 226.62 240 229 C240.66 229 241.32 229 242 229 C243.02835363 232.08506088 243.13368434 234.2694272 243.125 237.5 C243.12757813 238.4590625 243.13015625 239.418125 243.1328125 240.40625 C243 243 243 243 242 246 C241.34 246 240.68 246 240 246 C240 246.66 240 247.32 240 248 C240.99 248 241.98 248 243 248 C245.375 250.1875 245.375 250.1875 248 253 C248.9075 253.845625 249.815 254.69125 250.75 255.5625 C252.99737362 257.99715476 253.38134112 258.9067056 254 262 C254.46792969 262.41765625 254.93585938 262.8353125 255.41796875 263.265625 C259.8263399 268.09850596 260.52147949 277.33772308 260.30078125 283.703125 C259.70339456 288.26498697 258.33441805 292.60955719 257 297 C256.84402344 297.74636719 256.68804687 298.49273437 256.52734375 299.26171875 C256.26630859 300.12216797 256.26630859 300.12216797 256 301 C255.34 301.33 254.68 301.66 254 302 C253.34444881 304.52733235 253.34444881 304.52733235 253 307 C252.34 307 251.68 307 251 307 C250.690625 307.8353125 250.690625 307.8353125 250.375 308.6875 C248.44314106 311.93653549 246.05020195 313.8038546 243 316 C241.68 316 240.36 316 239 316 C239 316.66 239 317.32 239 318 C236.98757061 319.01680643 234.9645868 320.01273789 232.9375 321 C231.24947266 321.8353125 231.24947266 321.8353125 229.52734375 322.6875 C225.74843244 324.09360653 222.99375848 324.16033337 219 324 C217.8553125 324.4640625 217.8553125 324.4640625 216.6875 324.9375 C208.08336568 328.3391345 197.37963876 327.18622509 188.24926758 327.18530273 C185.80728099 327.18750471 183.36573612 327.20576334 180.92382812 327.22460938 C179.35156402 327.22754156 177.77929781 327.22952753 176.20703125 327.23046875 C175.48707474 327.23765427 174.76711823 327.24483978 174.02534485 327.25224304 C169.2729782 327.23098938 165.41767264 326.65179793 161 325 C159.66015625 322.3984375 159.66015625 322.3984375 159.0625 319.375 C158.84722656 318.37210937 158.63195312 317.36921875 158.41015625 316.3359375 C158.27480469 315.56507813 158.13945312 314.79421875 158 314 C157.42507812 314.43183594 156.85015625 314.86367188 156.2578125 315.30859375 C155.51273438 315.86675781 154.76765625 316.42492187 154 317 C153.00613281 317.75990234 153.00613281 317.75990234 151.9921875 318.53515625 C146.43554582 322.54372986 141.72076058 324.03657491 135 325 C134.35546875 325.1753125 133.7109375 325.350625 133.046875 325.53125 C130.51584374 326.11087548 128.15796321 326.16950095 125.5625 326.1875 C124.63566406 326.20167969 123.70882812 326.21585937 122.75390625 326.23046875 C119.79985298 325.98325011 117.71663272 325.1443051 115 324 C112.77081167 323.59182054 112.77081167 323.59182054 110.5625 323.4375 C107.00667678 323.10451321 103.51779901 322.63139982 100 322 C100 322.66 100 323.32 100 324 C97.03 324 94.06 324 91 324 C91 323.34 91 322.68 91 322 C90.01 322.33 89.02 322.66 88 323 C86.19658412 323.12656487 84.389335 323.20158921 82.58203125 323.24609375 C81.50034668 323.27767578 80.41866211 323.30925781 79.30419922 323.34179688 C78.15193848 323.37337891 76.99967773 323.40496094 75.8125 323.4375 C66.98521951 323.72244572 58.39460454 324.29494024 49.6484375 325.5234375 C43.11923565 326.37628828 36.57669228 326.74656895 30 327 C28.91428711 327.04302246 28.91428711 327.04302246 27.80664062 327.08691406 C25.62101395 327.16257774 23.43657057 327.21145469 21.25 327.25 C19.95578125 327.27578125 18.6615625 327.3015625 17.328125 327.328125 C13.74029474 326.97439526 12.68655734 326.23483531 10 324 C6.95437915 324.21754435 4.20606894 324.65073117 1.2734375 325.5 C-2.08140533 326.23783485 -5.45745768 326.49290049 -8.875 326.75 C-9.56980469 326.81832031 -10.26460937 326.88664062 -10.98046875 326.95703125 C-15.89766656 327.31818137 -18.77105487 326.43241515 -23 324 C-23.969375 323.87625 -24.93875 323.7525 -25.9375 323.625 C-29.99278589 322.79739064 -33.00192836 320.84728105 -36 318 C-36 317.34 -36 316.68 -36 316 C-36.57234375 315.92523438 -37.1446875 315.85046875 -37.734375 315.7734375 C-40.79568835 314.72836846 -42.13361801 313.04708161 -44.25 310.625 C-44.95640625 309.83351563 -45.6628125 309.04203125 -46.390625 308.2265625 C-48 306 -48 306 -48 303 C-48.99 302.67 -49.98 302.34 -51 302 C-53.74264511 297.76136664 -55.49746276 293.82958398 -57 289 C-57.3297583 288.36707031 -57.6595166 287.73414063 -57.99926758 287.08203125 C-64.47999263 273.59883455 -62.37575889 255.66940608 -58 242 C-54.64804051 233.77246306 -49.33699855 227.07728662 -43.609375 220.3671875 C-41.62517642 217.92575812 -41.62517642 217.92575812 -42 214 C-42.59039062 213.73445312 -43.18078125 213.46890625 -43.7890625 213.1953125 C-50.0848505 209.79158259 -55.27954225 203.00803649 -59 197 C-59.875 194 -59.875 194 -60 192 C-60.66 192 -61.32 192 -62 192 C-62.12117188 191.41992188 -62.24234375 190.83984375 -62.3671875 190.2421875 C-62.53476562 189.46101562 -62.70234375 188.67984375 -62.875 187.875 C-63.03742187 187.10929688 -63.19984375 186.34359375 -63.3671875 185.5546875 C-63.94394537 182.95974159 -63.94394537 182.95974159 -65.046875 180.44921875 C-66.47057056 175.29707456 -66.3824733 170.25966609 -66.375 164.9375 C-66.37367065 163.26264526 -66.37367065 163.26264526 -66.37231445 161.55395508 C-66.22972266 151.61957793 -65.187463 143.08608178 -59 135 C-58.67 134.01 -58.34 133.02 -58 132 C-57.34 132 -56.68 132 -56 132 C-55.7525 131.2575 -55.505 130.515 -55.25 129.75 C-53.90852699 126.79875938 -52.39094474 125.15185026 -50 123 C-50.804375 122.773125 -51.60875 122.54625 -52.4375 122.3125 C-55 121 -55 121 -55.75 118.8125 C-55.8325 117.884375 -55.915 116.95625 -56 116 C-56.54295494 112.0441854 -57.16497667 108.15296089 -58 104.25 C-58.92741556 99.74930686 -59.35681904 95.3102164 -59.71875 90.734375 C-60.08341629 87.18900825 -60.78459954 83.75998883 -61.52734375 80.27734375 C-62.39128248 76.11472986 -62.88116706 71.89973514 -63.4375 67.6875 C-63.8726652 64.83475036 -64.39896026 62.06820854 -65 59.25 C-65.73004789 55.71699452 -66.18090814 52.28502259 -66.4375 48.6875 C-66.76182967 44.44118373 -67.53310411 40.50701432 -68.5625 36.375 C-69.7036302 31.74464477 -70.1772977 27.73664759 -69.96875 22.9921875 C-70.01795665 19.85526341 -71.13507768 16.99839737 -72 14 C-71.87890625 11.47265625 -71.87890625 11.47265625 -71 9 C-65.56717471 5.19326255 -59.57915619 3.26898265 -53 4 C-53 3.34 -53 2.68 -53 2 C-48.82080187 0.84364256 -44.68542588 0.73525282 -40.375 0.5625 C-35.40276517 0.33402196 -30.60979703 0.09149862 -25.75 -1.0625 C-17.21286011 -3.03033294 -8.2863413 -2.81735604 0 0 Z M266 200 C267 202 267 202 267 202 Z " fill="#123350" transform="translate(78,18)"/>
<path d="M0 0 C2.49524559 1.72272373 4.53670484 3.50882632 6.6484375 5.6796875 C7.35484375 6.30101562 8.06125 6.92234375 8.7890625 7.5625 C12.28302836 10.74008312 12.28302836 10.74008312 13.6484375 12.6796875 C13.6484375 16.6796875 13.6484375 16.6796875 12.1796875 18.171875 C11.509375 18.62820312 10.8390625 19.08453125 10.1484375 19.5546875 C9.42527344 20.06257813 8.70210938 20.57046875 7.95703125 21.09375 C7.19519531 21.61710937 6.43335937 22.14046875 5.6484375 22.6796875 C4.16323912 23.75473676 2.68374886 24.83772971 1.2109375 25.9296875 C0.55222656 26.40921875 -0.10648438 26.88875 -0.78515625 27.3828125 C-2.4870477 28.61420294 -2.4870477 28.61420294 -3.3515625 30.6796875 C-7.94964445 29.91334051 -7.94964445 29.91334051 -10.15234375 28.6328125 C-14.62915708 26.692595 -19.67462751 27.82758838 -24.3515625 28.6796875 C-27.76270082 30.28083406 -28.84531 31.48874923 -30.3046875 34.921875 C-32.805849 42.40262166 -33.40790279 47.91357777 -29.8515625 55.1171875 C-29.031698 56.64532384 -28.20277363 58.16878774 -27.3515625 59.6796875 C-21.46527886 60.34327689 -17.49910798 60.2339539 -12.6015625 56.6796875 C-11.92609375 56.1228125 -11.250625 55.5659375 -10.5546875 54.9921875 C-7.524955 53.18724048 -5.87420749 53.33423054 -2.3515625 53.6796875 C0.56351007 54.78778587 3.2765549 56.20938506 6.0234375 57.6796875 C7.12751953 58.25203125 7.12751953 58.25203125 8.25390625 58.8359375 C10.0577609 59.77300485 11.85391009 60.72487957 13.6484375 61.6796875 C13.65874496 61.13226395 13.66905243 60.58484039 13.67967224 60.02082825 C13.7888732 54.26061747 13.90336023 48.50052806 14.02075195 42.74047852 C14.06374139 40.59825205 14.10543717 38.45599917 14.14575195 36.3137207 C14.57711077 13.48365612 14.57711077 13.48365612 15.6484375 2.6796875 C21.7445756 0.64479147 27.69802441 0.0617307 34.0859375 -0.4453125 C35.10365234 -0.53167969 36.12136719 -0.61804688 37.16992188 -0.70703125 C39.66231192 -0.91765576 42.1550496 -1.12191321 44.6484375 -1.3203125 C44.74242054 4.27202669 44.6566866 9.58766175 43.7109375 15.1171875 C42.31166013 24.79388027 42.1707708 34.50425422 41.8671875 44.265625 C41.65185446 51.09048608 41.21492118 57.8750085 40.6484375 64.6796875 C41.36273926 64.64939453 42.07704102 64.61910156 42.81298828 64.58789062 C69.03240033 63.48960689 69.03240033 63.48960689 80.6484375 63.6796875 C80.48577896 62.81354828 80.32312042 61.94740906 80.15553284 61.05502319 C79.67563319 57.86070784 79.52786881 54.90014749 79.53491211 51.67431641 C79.53498764 50.51356598 79.53506317 49.35281555 79.53514099 48.15689087 C79.54030228 46.91917938 79.54546356 45.6814679 79.55078125 44.40625 C79.55290367 42.48792862 79.55290367 42.48792862 79.55506897 40.53085327 C79.55970728 37.14757414 79.56867669 33.76436364 79.57977295 30.38110352 C79.59004235 26.92204376 79.59457839 23.46297689 79.59960938 20.00390625 C79.61062141 13.22914784 79.62734686 6.45442163 79.6484375 -0.3203125 C88.63807567 -0.6166742 96.58980258 0.3855968 105.6484375 1.6796875 C105.6484375 19.8296875 105.6484375 37.9796875 105.6484375 56.6796875 C106.6384375 57.0096875 107.6284375 57.3396875 108.6484375 57.6796875 C108.6484375 58.3396875 108.6484375 58.9996875 108.6484375 59.6796875 C111.00014881 59.08107008 113.3343753 58.41044398 115.6484375 57.6796875 C115.9784375 57.0196875 116.3084375 56.3596875 116.6484375 55.6796875 C117.3084375 55.6796875 117.9684375 55.6796875 118.6484375 55.6796875 C119.97209907 45.30976161 119.76101676 34.92284735 119.7109375 24.4921875 C119.70591206 22.66341268 119.701351 20.83463653 119.69726562 19.00585938 C119.68634369 14.56376855 119.66913673 10.12174309 119.6484375 5.6796875 C124.62610978 3.462716 128.72603061 2.15037633 134.2109375 1.4921875 C135.47035156 1.33363281 136.72976562 1.17507812 138.02734375 1.01171875 C141.26310639 0.71501991 144.4022118 0.61466295 147.6484375 0.6796875 C147.6484375 2.6596875 147.6484375 4.6396875 147.6484375 6.6796875 C149.19724609 5.92171875 149.19724609 5.92171875 150.77734375 5.1484375 C159.81753891 1.0259071 167.79086789 -0.99044967 177.7734375 -0.9453125 C179.2111853 -0.94241211 179.2111853 -0.94241211 180.67797852 -0.93945312 C190.56077118 -0.65587724 198.01126617 2.4640772 205.3984375 9.1796875 C209.10224229 13.29502615 210.26253689 16.68292448 210.171875 22.16796875 C209.1384757 27.126743 205.76610777 30.81431044 202.6484375 34.6796875 C201.64445323 36.01002331 200.64304317 37.34232542 199.6484375 38.6796875 C200.4940625 38.8034375 201.3396875 38.9271875 202.2109375 39.0546875 C205.80080548 39.70739077 209.15668625 40.63216213 212.6484375 41.6796875 C212.6484375 42.3396875 212.6484375 42.9996875 212.6484375 43.6796875 C213.3290625 43.8446875 214.0096875 44.0096875 214.7109375 44.1796875 C219.93963775 46.8496621 223.52587179 51.38574887 226.0859375 56.6171875 C227.62249712 64.98290096 226.63313704 72.06606517 222.6484375 79.6796875 C220.61838458 82.25035234 218.39534854 83.91858379 215.6484375 85.6796875 C214.86597656 86.21464844 214.08351563 86.74960937 213.27734375 87.30078125 C201.17314999 94.80070517 186.48556691 93.97172911 172.7109375 93.8046875 C171.23763643 93.79461753 169.76432854 93.78549892 168.29101562 93.77734375 C164.74334366 93.75569437 161.19593728 93.72139637 157.6484375 93.6796875 C157.13686804 90.22296549 156.64137218 86.76411198 156.1484375 83.3046875 C156.00535156 82.33917969 155.86226562 81.37367188 155.71484375 80.37890625 C154.82978656 74.09921477 154.46049076 68.01940952 154.6484375 61.6796875 C153.9884375 61.6796875 153.3284375 61.6796875 152.6484375 61.6796875 C150.6684375 44.8496875 150.6684375 44.8496875 148.6484375 27.6796875 C146.9196941 29.4084309 147.10720911 31.83214429 146.78125 34.19140625 C146.53822144 35.9084375 146.53822144 35.9084375 146.2902832 37.66015625 C146.11972412 38.88347656 145.94916504 40.10679687 145.7734375 41.3671875 C142.51712067 64.073638 142.51712067 64.073638 139.6484375 72.6796875 C138.9884375 72.6796875 138.3284375 72.6796875 137.6484375 72.6796875 C137.4421875 73.3396875 137.2359375 73.9996875 137.0234375 74.6796875 C134.0633616 81.13803492 129.99117883 86.31415128 123.6484375 89.6796875 C115.16752651 92.58773055 104.62011469 93.43455983 95.91015625 90.875 C90.75290808 87.97091851 87.23788267 82.91742887 84.6484375 77.6796875 C84.6484375 76.6896875 84.6484375 75.6996875 84.6484375 74.6796875 C83.9884375 74.6796875 83.3284375 74.6796875 82.6484375 74.6796875 C82.3184375 73.3596875 81.9884375 72.0396875 81.6484375 70.6796875 C80.41083927 74.39248219 80.29234853 77.99275096 80.0859375 81.8671875 C80.02116211 82.99157227 80.02116211 82.99157227 79.95507812 84.13867188 C79.84921065 85.98547125 79.7483399 87.83255584 79.6484375 89.6796875 C57.2326735 91.86806747 35.17652966 92.8374718 12.6484375 92.6796875 C12.6484375 85.0896875 12.6484375 77.4996875 12.6484375 69.6796875 C10.6684375 72.6496875 8.6884375 75.6196875 6.6484375 78.6796875 C-0.04950885 86.49395824 -8.24670496 91.74890312 -18.51782227 92.9284668 C-27.01572899 93.53647011 -35.06588285 93.86834044 -42.2265625 88.671875 C-46.08235691 85.05706774 -49.48779883 81.12732047 -52.3515625 76.6796875 C-52.3515625 76.0196875 -52.3515625 75.3596875 -52.3515625 74.6796875 C-53.0115625 74.6796875 -53.6715625 74.6796875 -54.3515625 74.6796875 C-59.90402437 62.25403255 -63.68372403 45.95812423 -59.3359375 32.546875 C-58.1246285 30.16074222 -56.7776345 27.94128021 -55.3515625 25.6796875 C-54.9596875 24.5246875 -54.5678125 23.3696875 -54.1640625 22.1796875 C-50.15176535 14.43180335 -42.7115688 8.2428914 -35.3515625 3.6796875 C-34.64773437 3.51597656 -33.94390625 3.35226563 -33.21875 3.18359375 C-32.29449219 2.93416016 -32.29449219 2.93416016 -31.3515625 2.6796875 C-31.0215625 2.0196875 -30.6915625 1.3596875 -30.3515625 0.6796875 C-21.88046352 -3.13230704 -8.61244383 -3.3927809 0 0 Z " fill="#70AE43" transform="translate(95.3515625,235.3203125)"/>
<path d="M0 0 C0.73992187 0.58910156 1.47984375 1.17820312 2.2421875 1.78515625 C5.32986558 4.37287222 7.75419447 6.6312917 10 10 C10.33 7.36 10.66 4.72 11 2 C21.30025174 -2.4200314 30.74370545 -4.61379259 42 -4.6875 C43.03697021 -4.70619141 44.07394043 -4.72488281 45.14233398 -4.74414062 C54.23954048 -4.60993987 62.46782048 -1.53217952 69 5 C71.64735053 8.92538183 72.79965851 12.64578586 72.703125 17.34375 C71.12628645 23.30069563 66.73287891 28.20799077 63 33 C64.258125 33.165 65.51625 33.33 66.8125 33.5 C73.18607888 34.88820398 78.21355894 38.68365583 83 43 C83.33 43.99 83.66 44.98 84 46 C84.66 46 85.32 46 86 46 C85.97679687 45.31035156 85.95359375 44.62070313 85.9296875 43.91015625 C85.66045946 29.89106736 89.36279234 18.41410348 99 8 C108.63056311 -1.2633666 118.52991826 -5.66751012 131.82421875 -5.46679688 C137.51373332 -5.22369943 142.71414742 -4.18187527 148 -2 C148 -1.34 148 -0.68 148 0 C149.10988281 0.36351562 149.10988281 0.36351562 150.2421875 0.734375 C153.35673098 2.16371224 154.889983 3.67315687 157.125 6.25 C157.78757812 6.99765625 158.45015625 7.7453125 159.1328125 8.515625 C164.10534543 15.13179852 164.51378665 20.43800151 164.4375 28.5 C164.43049072 30.10161987 164.43049072 30.10161987 164.42333984 31.7355957 C164.23112127 42.04585607 161.86765869 50.47022836 158 60 C157.34 60 156.68 60 156 60 C155.814375 60.804375 155.62875 61.60875 155.4375 62.4375 C151.29640029 72.70022536 143.45657361 78.54241389 133.6328125 83.09765625 C124.83152499 86.28330745 113.39108895 86.55363795 104.5 83.5625 C97.30544344 80.15327505 91.86488462 73.34126685 89 66 C89 65.34 89 64.68 89 64 C88.34 64 87.68 64 87 64 C86.9175 64.86625 86.835 65.7325 86.75 66.625 C85.39536814 72.72084339 82.04435841 76.51144235 77 80 C74.3074426 81.12130751 71.55969554 81.91421211 68.75 82.6875 C68.03714844 82.89955078 67.32429687 83.11160156 66.58984375 83.33007812 C56.46781083 86.22078482 46.47351518 86.15607868 36 86.125 C34.65234281 86.1285678 33.30468647 86.13247159 31.95703125 86.13671875 C30.06017578 86.13478516 30.06017578 86.13478516 28.125 86.1328125 C26.97257812 86.13168457 25.82015625 86.13055664 24.6328125 86.12939453 C22 86 22 86 21 85 C20.73562345 83.27493354 20.53118184 81.54062705 20.3515625 79.8046875 C20.23474121 78.70624512 20.11791992 77.60780273 19.99755859 76.47607422 C19.87461426 75.28771973 19.75166992 74.09936523 19.625 72.875 C18.62173334 63.53075177 17.57281571 54.19648239 16.375 44.875 C16.25205566 43.89257324 16.12911133 42.91014648 16.00244141 41.89794922 C15.88562012 41.00092285 15.76879883 40.10389648 15.6484375 39.1796875 C15.54708496 38.39319824 15.44573242 37.60670898 15.34130859 36.79638672 C15.17149779 34.98393374 15.17149779 34.98393374 14 34 C13.89042969 34.83402344 13.78085938 35.66804688 13.66796875 36.52734375 C11.38592774 52.72426896 5.61947195 67.46891947 -7.3125 78.23828125 C-17.77965058 85.09974188 -29.82473831 86.36261996 -42 85 C-47.50002065 83.49050528 -51.26976194 80.24832668 -55 76 C-55.680625 75.236875 -56.36125 74.47375 -57.0625 73.6875 C-63.747894 64.41421155 -65.14243208 54.85304231 -65.25 43.625 C-65.2593457 42.94695312 -65.26869141 42.26890625 -65.27832031 41.5703125 C-65.25255305 37.57440536 -64.66351198 34.61469896 -63 31 C-62.566875 29.14375 -62.566875 29.14375 -62.125 27.25 C-59.28000894 15.62930577 -53.34434004 8.62574512 -44.1484375 1.28515625 C-42 0 -42 0 -38 0 C-38 -0.66 -38 -1.32 -38 -2 C-28.19075677 -8.13077702 -8.78801158 -7.13358834 0 0 Z " fill="#F2C411" transform="translate(169,38)"/>
<path d="M0 0 C1.6254308 0.14095064 3.25034051 0.28792087 4.875 0.4375 C5.77992188 0.51871094 6.68484375 0.59992188 7.6171875 0.68359375 C10 1 10 1 12 2 C12.4140625 4.06640625 12.4140625 4.06640625 12.625 6.5625 C12.69976562 7.38878906 12.77453125 8.21507812 12.8515625 9.06640625 C12.90054688 9.70449219 12.94953125 10.34257812 13 11 C15.29294488 11.85974801 15.29294488 11.85974801 18 12 C20.14589423 10.10413616 20.14589423 10.10413616 22 8 C25 8 25 8 27.625 10.1875 C30.07856659 13.09303938 30.90872329 14.25765488 31 18 C30.35747635 20.0078864 29.69258229 22.00882592 29 24 C29.495 25.485 29.495 25.485 30 27 C32.97 27 35.94 27 39 27 C41.41685712 31.22949995 42.34833144 34.12335991 42 39 C41.195625 39.20625 40.39125 39.4125 39.5625 39.625 C38.716875 40.07875 37.87125 40.5325 37 41 C36.10169161 44.05272465 36.10169161 44.05272465 36 47 C37.98 47.495 37.98 47.495 40 48 C40 48.66 40 49.32 40 50 C40.99 50 41.98 50 43 50 C43.17835515 54.54805635 42.99785435 57.8794254 41 62 C36.545 62.495 36.545 62.495 32 63 C31.65056891 67.19317311 32.41596355 68.76995444 35 72 C35 75 35 75 32.75 77.625 C28.95238095 80.9047619 28.95238095 80.9047619 26 81 C24.65812182 80.3507041 23.32520503 79.68268138 22 79 C20.35 79 18.7 79 17 79 C17 82.3 17 85.6 17 89 C9.5 92 9.5 92 5 92 C4.319375 90.7625 4.319375 90.7625 3.625 89.5 C3.08875 88.675 2.5525 87.85 2 87 C-1.12635209 86.58253392 -1.12635209 86.58253392 -4 87 C-4.66 88.98 -5.32 90.96 -6 93 C-7.43739513 93.02712066 -8.87493863 93.04645067 -10.3125 93.0625 C-11.11300781 93.07410156 -11.91351563 93.08570313 -12.73828125 93.09765625 C-15 93 -15 93 -18 92 C-18.33 89.03 -18.66 86.06 -19 83 C-20.98 82.34 -22.96 81.68 -25 81 C-25.33 81.99 -25.66 82.98 -26 84 C-28.0625 84.875 -28.0625 84.875 -31 85 C-33.85014947 83.43328498 -36.03936383 81.59871304 -38 79 C-38 75.9375 -38 75.9375 -37 73 C-36.63128912 71.34080104 -36.28718326 69.6752357 -36 68 C-37.58272601 66.41727399 -39.38034003 66.65264253 -41.5625 66.4375 C-42.80193359 66.31181641 -42.80193359 66.31181641 -44.06640625 66.18359375 C-44.70449219 66.12300781 -45.34257813 66.06242187 -46 66 C-46.5345256 64.75579353 -47.05208611 63.50429064 -47.5625 62.25 C-47.85253906 61.55390625 -48.14257812 60.8578125 -48.44140625 60.140625 C-49.09655149 57.6299985 -48.9974397 56.38583566 -48 54 C-45 52 -45 52 -42 52 C-41.94250443 49.08369887 -41.94250443 49.08369887 -43 46 C-45.27444434 44.5073959 -47.37961699 43.85757989 -50 43 C-49.85831863 41.56208484 -49.71148957 40.1246763 -49.5625 38.6875 C-49.48128906 37.88699219 -49.40007812 37.08648437 -49.31640625 36.26171875 C-49 34 -49 34 -48 31 C-45.03 31 -42.06 31 -39 31 C-38.83322718 27.58343976 -38.83322718 27.58343976 -39 24 C-39.66 23.34 -40.32 22.68 -41 22 C-40.8625607 17.05218502 -38.1736669 14.4991712 -35 11 C-33.68 11.33 -32.36 11.66 -31 12 C-31 12.66 -31 13.32 -31 14 C-28.03 14.495 -28.03 14.495 -25 15 C-25 14.34 -25 13.68 -25 13 C-24.34 13 -23.68 13 -23 13 C-23 9.7 -23 6.4 -23 3 C-18.88954343 1.00705136 -15.55147826 0.40999356 -11 1 C-9.95107762 2.63631892 -8.95093297 4.30485863 -8 6 C-4.9042893 6.89207179 -4.9042893 6.89207179 -2 7 C-1.34 4.69 -0.68 2.38 0 0 Z " fill="#E05359" transform="translate(145,133)"/>
<path d="M0 0 C1.01642578 -0.020625 2.03285156 -0.04125 3.08007812 -0.0625 C13.44735323 -0.11604306 20.77545453 2.67086776 28.5625 9.75 C32.26630479 13.86533865 33.42659939 17.25323698 33.3359375 22.73828125 C32.3025382 27.6970555 28.93017027 31.38462294 25.8125 35.25 C24.80851573 36.58033581 23.80710567 37.91263792 22.8125 39.25 C24.0809375 39.435625 24.0809375 39.435625 25.375 39.625 C28.96486798 40.27770327 32.32074875 41.20247463 35.8125 42.25 C35.8125 42.91 35.8125 43.57 35.8125 44.25 C36.493125 44.415 37.17375 44.58 37.875 44.75 C43.10370025 47.4199746 46.68993429 51.95606137 49.25 57.1875 C50.78655962 65.55321346 49.79719954 72.63637767 45.8125 80.25 C43.78244708 82.82066484 41.55941104 84.48889629 38.8125 86.25 C38.03003906 86.78496094 37.24757813 87.31992187 36.44140625 87.87109375 C24.33721249 95.37101767 9.64962941 94.54204161 -4.125 94.375 C-5.59830107 94.36493003 -7.07160896 94.35581142 -8.54492188 94.34765625 C-12.09259384 94.32600687 -15.64000022 94.29170887 -19.1875 94.25 C-19.69906946 90.79327799 -20.19456532 87.33442448 -20.6875 83.875 C-20.83058594 82.90949219 -20.97367188 81.94398438 -21.12109375 80.94921875 C-22.00615094 74.66952727 -22.37544674 68.58972202 -22.1875 62.25 C-22.8475 62.25 -23.5075 62.25 -24.1875 62.25 C-24.29819824 61.27764404 -24.40889648 60.30528809 -24.52294922 59.3034668 C-24.940494 55.64451004 -25.36288046 51.98612481 -25.78662109 48.32788086 C-25.96825031 46.75413605 -26.14862194 45.18024552 -26.32763672 43.60620117 C-27.25141028 35.49092786 -28.25578958 27.46209974 -29.80810547 19.43823242 C-30.26724521 16.79005382 -30.39031832 14.24723215 -30.3125 11.5625 C-30.29445312 10.73363281 -30.27640625 9.90476563 -30.2578125 9.05078125 C-30.23460937 8.45652344 -30.21140625 7.86226562 -30.1875 7.25 C-27.58358461 6.27016072 -24.97938032 5.29110206 -22.375 4.3125 C-21.63701172 4.03470703 -20.89902344 3.75691406 -20.13867188 3.47070312 C-19.42646484 3.20322266 -18.71425781 2.93574219 -17.98046875 2.66015625 C-17.3258667 2.41402588 -16.67126465 2.16789551 -15.99682617 1.91430664 C-10.57980365 -0.07459071 -5.72786129 0.02851456 0 0 Z " fill="#ED78AD" transform="translate(272.1875,234.75)"/>
<path d="M0 0 C0.82757813 0.598125 1.65515625 1.19625 2.5078125 1.8125 C7.37977553 5.72404021 10.53823821 9.33738947 11.34375 15.7265625 C11.71586145 23.07576358 10.43342498 28.11695377 6 34 C3.375 36.875 3.375 36.875 1 39 C0.1646875 39.8971875 0.1646875 39.8971875 -0.6875 40.8125 C-2 42 -2 42 -4 42 C-3.63390625 42.40347656 -3.2678125 42.80695313 -2.890625 43.22265625 C1.31865699 47.94306534 5.37069387 52.79301683 9.375 57.6875 C9.91092773 58.32888916 10.44685547 58.97027832 10.99902344 59.63110352 C13.73658846 63.0083398 15.67325553 65.50296421 16 70 C15.52578613 70.29245605 15.05157227 70.58491211 14.56298828 70.88623047 C12.4152283 72.21298933 10.27009676 73.54393996 8.125 74.875 C7.37863281 75.33519531 6.63226563 75.79539062 5.86328125 76.26953125 C5.14785156 76.71425781 4.43242188 77.15898438 3.6953125 77.6171875 C3.03547363 78.02565918 2.37563477 78.43413086 1.69580078 78.85498047 C-0.14954179 80.02265066 -0.14954179 80.02265066 -2 82 C-3.32 82 -4.64 82 -6 82 C-7.81518555 80.02807617 -7.81518555 80.02807617 -9.63671875 77.29296875 C-10.29607422 76.31392578 -10.95542969 75.33488281 -11.63476562 74.32617188 C-12.31216797 73.29041016 -12.98957031 72.25464844 -13.6875 71.1875 C-14.37650391 70.16333984 -15.06550781 69.13917969 -15.77539062 68.08398438 C-20.83362856 60.49911431 -20.83362856 60.49911431 -22 57 C-22.66 57 -23.32 57 -24 57 C-24 64.59 -24 72.18 -24 80 C-27.29794288 81.09931429 -30.09403136 81.28679007 -33.5625 81.5 C-39.39137669 81.88132838 -45.19297383 82.3711285 -51 83 C-53.17712012 75.09442908 -54.4244136 67.25315377 -55.375 59.125 C-56.55628419 49.06169617 -58.01735149 39.06471507 -59.625 29.0625 C-59.73527527 28.36666809 -59.84555054 27.67083618 -59.95916748 26.95391846 C-60.27276897 24.9802457 -60.59325737 23.00767092 -60.9140625 21.03515625 C-61.0992041 19.8944165 -61.2843457 18.75367676 -61.47509766 17.57836914 C-61.73692309 15.07913179 -61.73692309 15.07913179 -63 14 C-63.79218265 9.86304617 -64.05161169 5.95831399 -64.02734375 1.74609375 C-64.023396 0.85462646 -64.01944824 -0.03684082 -64.01538086 -0.95532227 C-64.01030518 -1.63006592 -64.00522949 -2.30480957 -64 -3 C-16.74211403 -12.14158978 -16.74211403 -12.14158978 0 0 Z " fill="#F2C411" transform="translate(90,40)"/>
<path d="M0 0 C0 0.66 0 1.32 0 2 C0.66 2.185625 1.32 2.37125 2 2.5625 C6.9489184 4.93385674 13.50886113 9.75095888 15.8515625 14.85546875 C19.4492281 25.70297562 19.49453997 39.07189914 16 50 C13.99805359 53.63755727 11.62483388 56.79251068 9 60 C8.2575 61.03125 7.515 62.0625 6.75 63.125 C-3.55809756 73.90164745 -19.62006965 82.70518315 -34.76953125 83.09765625 C-36.11722242 83.09108215 -37.46489707 83.07926444 -38.8125 83.0625 C-39.50537109 83.05798828 -40.19824219 83.05347656 -40.91210938 83.04882812 C-42.60811068 83.03713156 -44.30406703 83.01919924 -46 83 C-46.67601154 78.1477823 -47.35143694 73.29548346 -48.02636719 68.44311523 C-48.25505534 66.79953925 -48.48389141 65.15598384 -48.71289062 63.51245117 C-49.04598272 61.12163884 -49.37857254 58.73075727 -49.7109375 56.33984375 C-49.82122284 55.54750839 -49.93150818 54.75517303 -50.0451355 53.93882751 C-50.5549992 50.2629951 -51.0577199 46.58662614 -51.53564453 42.90649414 C-52.68590727 34.05740388 -54.09542465 25.28358007 -55.67578125 16.50195312 C-56.64562131 10.90531972 -57.20310411 5.68014488 -57 0 C-55.41800369 -0.64910154 -53.83434276 -1.29414694 -52.25 -1.9375 C-51.36828125 -2.29714844 -50.4865625 -2.65679687 -49.578125 -3.02734375 C-35.14395271 -8.47296329 -13.63261898 -7.29853406 0 0 Z " fill="#F1C311" transform="translate(244,143)"/>
<path d="M0 0 C2.86810222 1.88875024 3.74595249 2.97504971 4.56640625 6.28515625 C6.03290878 15.46731173 5.52126514 22.37090145 0 30 C-1.32869858 31.67036393 -2.66104368 33.33784732 -4 35 C-4.69734928 36.65406354 -5.36849481 38.31969544 -6 40 C-5.27296875 40.10957031 -4.5459375 40.21914062 -3.796875 40.33203125 C3.58882317 41.49669904 10.77552138 43.07859611 18 45 C14.18730868 51.49890566 10.3234024 55.90370788 4 60 C3.21625 60.556875 2.4325 61.11375 1.625 61.6875 C-8.24718308 66.62359154 -19.17939485 67.54354049 -29.96875 65.4140625 C-37.98302005 62.71790375 -42.8494743 56.69621604 -47 49.5625 C-48 47 -48 47 -48 45 C-48.66 45 -49.32 45 -50 45 C-50.0825 45.86625 -50.165 46.7325 -50.25 47.625 C-51.60463186 53.72084339 -54.95564159 57.51144235 -60 61 C-62.6925574 62.12130751 -65.44030446 62.91421211 -68.25 63.6875 C-69.31927734 64.00557617 -69.31927734 64.00557617 -70.41015625 64.33007812 C-80.53218917 67.22078482 -90.52648482 67.15607868 -101 67.125 C-102.34765719 67.1285678 -103.69531353 67.13247159 -105.04296875 67.13671875 C-106.30753906 67.13542969 -107.57210937 67.13414063 -108.875 67.1328125 C-110.02742187 67.13168457 -111.17984375 67.13055664 -112.3671875 67.12939453 C-115 67 -115 67 -116 66 C-116.28795541 64.14619282 -116.51602377 62.28302142 -116.71875 60.41796875 C-116.84636719 59.25716797 -116.97398437 58.09636719 -117.10546875 56.90039062 C-117.23566406 55.67513672 -117.36585938 54.44988281 -117.5 53.1875 C-117.63019531 52.00478516 -117.76039063 50.82207031 -117.89453125 49.60351562 C-118.71198038 42.07720372 -119.41068773 34.54753029 -120 27 C-118.69836914 27.1554126 -117.39673828 27.3108252 -116.05566406 27.47094727 C-111.40847563 27.9861741 -106.77940072 28.26730135 -102.109375 28.46484375 C-100.42381734 28.54200116 -98.73827084 28.61940256 -97.05273438 28.69702148 C-95.75275513 28.75561844 -95.75275513 28.75561844 -94.42651367 28.81539917 C-79.57570469 29.49288351 -64.76759344 30.22924439 -50 32 C-48.95247559 32.12552246 -47.90495117 32.25104492 -46.82568359 32.38037109 C-39.87957974 33.22138811 -32.93816711 34.09592757 -26 35 C-26.16153564 34.2258374 -26.32307129 33.4516748 -26.48950195 32.65405273 C-27.68348725 26.44658543 -27.80973186 19.74162597 -25 14 C-18.33129098 4.22037259 -12.32797827 -1.45510563 0 0 Z " fill="#E8A329" transform="translate(306,57)"/>
<path d="M0 0 C1.95292969 0.01353516 1.95292969 0.01353516 3.9453125 0.02734375 C5.39550781 0.04474609 5.39550781 0.04474609 6.875 0.0625 C6.56287361 2.72921086 6.25030779 5.39586905 5.9375 8.0625 C5.85048828 8.80628906 5.76347656 9.55007812 5.67382812 10.31640625 C5.09646169 15.23471292 4.49472716 20.14934772 3.875 25.0625 C-0.53400502 25.89177069 -4.79103007 26.24481714 -9.2734375 26.37890625 C-9.93082916 26.39968735 -10.58822083 26.42046844 -11.26553345 26.44187927 C-13.34359362 26.50670753 -15.42176856 26.56594564 -17.5 26.625 C-18.91798011 26.66824888 -20.33594907 26.71186509 -21.75390625 26.75585938 C-25.2108188 26.86231918 -28.66785706 26.96376984 -32.125 27.0625 C-32.125 29.7025 -32.125 32.3425 -32.125 35.0625 C-23.545 35.0625 -14.965 35.0625 -6.125 35.0625 C-6.269375 37.681875 -6.41375 40.30125 -6.5625 43 C-6.60560303 43.8262085 -6.64870605 44.65241699 -6.69311523 45.50366211 C-7.01388889 50.95138889 -7.01388889 50.95138889 -8.125 52.0625 C-15.04816771 53.5115351 -22.0847887 53.15038058 -29.125 53.0625 C-29.125 56.0325 -29.125 59.0025 -29.125 62.0625 C-27.86623047 61.95421875 -27.86623047 61.95421875 -26.58203125 61.84375 C-15.42226549 60.98254621 -4.31349062 60.95742098 6.875 61.0625 C5.73214286 82.20535714 5.73214286 82.20535714 2.875 85.0625 C-0.08996973 85.31744963 -3.0283094 85.49599186 -6 85.625 C-6.93859863 85.6674585 -7.87719727 85.70991699 -8.84423828 85.75366211 C-23.92606208 86.34526956 -39.03475549 86.14612028 -54.125 86.0625 C-56.1171786 71.81183566 -57.52719562 57.61114657 -58.42089844 43.24926758 C-58.89382258 35.83563294 -59.64261478 28.59117229 -60.75 21.24609375 C-61.38481187 15.85680544 -61.28941602 10.47909447 -61.125 5.0625 C-59.76955078 4.97162109 -59.76955078 4.97162109 -58.38671875 4.87890625 C-57.20722656 4.79511719 -56.02773438 4.71132812 -54.8125 4.625 C-53.05486328 4.50318359 -53.05486328 4.50318359 -51.26171875 4.37890625 C-48.09909042 4.1757629 -48.09909042 4.1757629 -45.125 3.0625 C-43.17951017 2.85682832 -41.2290835 2.69645318 -39.27734375 2.5625 C-38.11396484 2.48 -36.95058594 2.3975 -35.75195312 2.3125 C-33.92567383 2.18875 -33.92567383 2.18875 -32.0625 2.0625 C-29.67569379 1.89709058 -27.28897302 1.73044313 -24.90234375 1.5625 C-23.74702148 1.4812085 -22.59169922 1.39991699 -21.40136719 1.31616211 C-18.51378533 1.09260044 -15.64086292 0.81538131 -12.76171875 0.50390625 C-8.48010863 0.05643662 -4.30542553 -0.03914023 0 0 Z " fill="#F0C212" transform="translate(324.125,137.9375)"/>
<path d="M0 0 C2.49524559 1.72272373 4.53670484 3.50882632 6.6484375 5.6796875 C7.35484375 6.30101562 8.06125 6.92234375 8.7890625 7.5625 C12.28302836 10.74008312 12.28302836 10.74008312 13.6484375 12.6796875 C13.6484375 16.6796875 13.6484375 16.6796875 12.1796875 18.171875 C11.509375 18.62820312 10.8390625 19.08453125 10.1484375 19.5546875 C9.42527344 20.06257813 8.70210938 20.57046875 7.95703125 21.09375 C7.19519531 21.61710937 6.43335937 22.14046875 5.6484375 22.6796875 C4.16323912 23.75473676 2.68374886 24.83772971 1.2109375 25.9296875 C0.55222656 26.40921875 -0.10648438 26.88875 -0.78515625 27.3828125 C-2.4870477 28.61420294 -2.4870477 28.61420294 -3.3515625 30.6796875 C-7.94964445 29.91334051 -7.94964445 29.91334051 -10.15234375 28.6328125 C-14.62915708 26.692595 -19.67462751 27.82758838 -24.3515625 28.6796875 C-27.76270082 30.28083406 -28.84531 31.48874923 -30.3046875 34.921875 C-32.805849 42.40262166 -33.40790279 47.91357777 -29.8515625 55.1171875 C-29.031698 56.64532384 -28.20277363 58.16878774 -27.3515625 59.6796875 C-21.46527886 60.34327689 -17.49910798 60.2339539 -12.6015625 56.6796875 C-11.92609375 56.1228125 -11.250625 55.5659375 -10.5546875 54.9921875 C-7.50844074 53.1774022 -5.8710002 53.20705318 -2.3515625 53.6796875 C0.55890596 54.80020349 3.27621148 56.20920124 6.0234375 57.6796875 C7.12751953 58.25203125 7.12751953 58.25203125 8.25390625 58.8359375 C10.0577609 59.77300485 11.85391009 60.72487957 13.6484375 61.6796875 C14.07302709 68.46324682 11.46365444 72.28233084 7.6484375 77.6796875 C5.0859375 80.5546875 5.0859375 80.5546875 2.6484375 82.6796875 C1.5346875 83.6696875 1.5346875 83.6696875 0.3984375 84.6796875 C-10.4152006 92.54415157 -21.17148696 94.27002068 -34.3515625 92.6796875 C-42.43810692 90.11911712 -47.86235588 83.65175142 -52.3515625 76.6796875 C-52.3515625 76.0196875 -52.3515625 75.3596875 -52.3515625 74.6796875 C-53.0115625 74.6796875 -53.6715625 74.6796875 -54.3515625 74.6796875 C-59.90402437 62.25403255 -63.68372403 45.95812423 -59.3359375 32.546875 C-58.1246285 30.16074222 -56.7776345 27.94128021 -55.3515625 25.6796875 C-54.9596875 24.5246875 -54.5678125 23.3696875 -54.1640625 22.1796875 C-50.15176535 14.43180335 -42.7115688 8.2428914 -35.3515625 3.6796875 C-34.64773437 3.51597656 -33.94390625 3.35226563 -33.21875 3.18359375 C-32.29449219 2.93416016 -32.29449219 2.93416016 -31.3515625 2.6796875 C-31.0215625 2.0196875 -30.6915625 1.3596875 -30.3515625 0.6796875 C-21.88046352 -3.13230704 -8.61244383 -3.3927809 0 0 Z " fill="#EB954F" transform="translate(95.3515625,235.3203125)"/>
<path d="M0 0 C9.68102495 -0.49595415 15.91625772 1.29864861 23.5625 7.3046875 C25.69519133 9.25740487 26.99230209 10.83723364 28.5625 13.3046875 C28.5625 14.2946875 28.5625 15.2846875 28.5625 16.3046875 C26.83984375 17.91796875 26.83984375 17.91796875 24.5 19.6171875 C21.42657758 21.88003697 18.58244853 24.18149121 15.8125 26.8046875 C12.93799941 29.31322158 12.93799941 29.31322158 9.8125 29.2421875 C9.07 28.9328125 8.3275 28.6234375 7.5625 28.3046875 C2.91142537 26.75432929 -1.59141823 26.564986 -6.4375 27.3046875 C-9.67370483 29.22637973 -11.8400456 31.56056596 -13.06640625 35.140625 C-14.06139539 40.94298274 -14.91742501 47.90319591 -11.5 52.9921875 C-9.45495205 55.62376354 -9.45495205 55.62376354 -6.65234375 56.61328125 C-1.67830379 56.89483068 0.89278562 56.44863946 4.75 53.1796875 C5.34167969 52.59960938 5.93335938 52.01953125 6.54296875 51.421875 C8.5625 50.3046875 8.5625 50.3046875 11.30859375 50.9296875 C12.38238281 51.3834375 13.45617187 51.8371875 14.5625 52.3046875 C15.85081336 52.80920882 17.13991335 53.31172488 18.4296875 53.8125 C19.76634182 54.34978262 21.10227255 54.88886863 22.4375 55.4296875 C23.12585938 55.70683594 23.81421875 55.98398438 24.5234375 56.26953125 C26.20376501 56.94632983 27.88322342 57.62528553 29.5625 58.3046875 C28.21855448 66.69327053 23.23636082 74.58603049 16.4375 79.6171875 C13.5625 81.3046875 13.5625 81.3046875 11.5625 81.3046875 C11.0675 82.7896875 11.0675 82.7896875 10.5625 84.3046875 C1.40826119 87.61492564 -10.22157544 89.4107925 -19.4375 85.3046875 C-28.63238999 79.0299138 -34.80269302 69.71674414 -38.4375 59.3046875 C-40.95578331 45.6744791 -40.80623199 31.45691875 -33.12890625 19.6171875 C-28.03863728 12.65774356 -21.57277132 8.03242846 -14.4375 3.3046875 C-13.4475 2.6446875 -12.4575 1.9846875 -11.4375 1.3046875 C-7.62448284 0.57141497 -3.86534894 0.34261047 0 0 Z " fill="#F1C311" transform="translate(67.4375,137.6953125)"/>
<path d="M0 0 C0.23709033 5.59796616 -0.07427146 10.90004876 -0.9375 16.4375 C-2.33677737 26.11419277 -2.4776667 35.82456672 -2.78125 45.5859375 C-2.99658304 52.41079858 -3.43351632 59.195321 -4 66 C-3.28569824 65.96970703 -2.57139648 65.93941406 -1.83544922 65.90820312 C10.78269429 65.37965192 23.36892786 64.85312707 36 65 C35.67 73.58 35.34 82.16 35 91 C12.56442578 93.1435262 -9.45634216 94.17156513 -32 94 C-32.03002216 90.83335476 -32.04712744 87.66674753 -32.0625 84.5 C-32.07087891 83.63246094 -32.07925781 82.76492188 -32.08789062 81.87109375 C-32.10999365 75.72645177 -31.80777872 69.64583217 -31.3888092 63.51615906 C-30.74986404 53.75363161 -30.64270303 43.97099093 -30.44775391 34.19165039 C-30.24194019 24.09261703 -29.94274342 14.06241304 -29 4 C-23.61042534 2.28742487 -18.43111594 1.44010399 -12.8125 0.875 C-11.62237305 0.74544922 -11.62237305 0.74544922 -10.40820312 0.61328125 C-6.89569372 0.24168076 -3.54259188 0 0 0 Z " fill="#3ABBE7" transform="translate(140,234)"/>
<path d="M0 0 C5.61971831 2.85915493 5.61971831 2.85915493 7 7 C7.09563897 9.08155401 7.12984592 11.16625568 7.125 13.25 C7.12886719 14.89742187 7.12886719 14.89742187 7.1328125 16.578125 C6.99728637 20.06991596 6.49418562 23.54070065 6 27 C12.6 27.33 19.2 27.66 26 28 C24.23884507 40.32808449 17.31043083 51.22459054 7.6875 59.23828125 C-2.77965058 66.09974188 -14.82473831 67.36261996 -27 66 C-32.50002065 64.49050528 -36.26976194 61.24832668 -40 57 C-40.680625 56.236875 -41.36125 55.47375 -42.0625 54.6875 C-47.47508146 47.17972572 -48.93780377 40.1684306 -50 31 C-42.02509872 29.67084979 -34.05813281 29.91198641 -26 30 C-26.05220703 28.62714844 -26.05220703 28.62714844 -26.10546875 27.2265625 C-26.13253906 26.03804687 -26.15960938 24.84953125 -26.1875 23.625 C-26.22230469 22.44164063 -26.25710937 21.25828125 -26.29296875 20.0390625 C-26.19628906 19.03617188 -26.09960938 18.03328125 -26 17 C-25.01 16.34 -24.02 15.68 -23 15 C-22.566875 13.88625 -22.566875 13.88625 -22.125 12.75 C-18.19100813 3.13357543 -10.20983014 -1.67130121 0 0 Z " fill="#E7A229" transform="translate(154,57)"/>
<path d="M0 0 C0.33 0 0.66 0 1 0 C1.66 4.62 2.32 9.24 3 14 C13.4401092 15.16630287 23.81047796 16.09375746 34.3125 16.4375 C42.00376587 16.7047951 49.05782212 17.5857918 56.5703125 19.30078125 C62.00410228 20.40858122 67.46959745 20.72954187 73 21 C72.505 17.04 72.505 17.04 72 13 C75.74671293 17.56121574 76.36901526 21.63767509 76.2734375 27.4296875 C75.60569515 33.70646559 73.68064172 39.9570189 68.9375 44.3125 C67.65364642 45.24892597 66.33775461 46.14233677 65 47 C63.82630859 47.80244141 63.82630859 47.80244141 62.62890625 48.62109375 C50.52471249 56.12101767 35.83712941 55.29204161 22.0625 55.125 C20.58919893 55.11493003 19.11589104 55.10581142 17.64257812 55.09765625 C14.09490616 55.07600687 10.54749978 55.04170887 7 55 C6.48843054 51.54327799 5.99293468 48.08442448 5.5 44.625 C5.35691406 43.65949219 5.21382812 42.69398438 5.06640625 41.69921875 C4.18134906 35.41952727 3.81205326 29.33972202 4 23 C3.34 23 2.68 23 2 23 C-0.29612756 7.25512528 -0.29612756 7.25512528 0 0 Z " fill="#D06697" transform="translate(246,274)"/>
<path d="M0 0 C0 0.66 0 1.32 0 2 C0.70125 2.165 1.4025 2.33 2.125 2.5 C7.13024692 5.11143318 10.06595034 9.67603345 12.14453125 14.84765625 C14.27495099 22.69810709 14.18813531 30.67383991 10.5 38 C6.10116267 45.03813973 -0.0690432 49.53866858 -8 52 C-11.38128513 52.35503494 -14.61483298 52.27559731 -18 52 C-19.15048828 51.91298828 -19.15048828 51.91298828 -20.32421875 51.82421875 C-27.17658308 50.83164242 -31.44914198 47.03518628 -36 42 C-41.35612604 34.75258652 -43.13336631 26.86195995 -42 18 C-39.40746815 9.45471296 -33.64915193 3.32237252 -26.02734375 -1.16015625 C-17.48370488 -4.93198861 -8.35682646 -3.46653542 0 0 Z " fill="#C44046" transform="translate(156,155)"/>
<path d="M0 0 C7.41903913 -0.82433768 12.1367889 1.45939602 18 6 C20.21429435 8.31162597 20.93815236 9.49270209 21.328125 12.69140625 C21.28945312 14.11259766 21.28945312 14.11259766 21.25 15.5625 C21.23453125 16.51253906 21.2190625 17.46257812 21.203125 18.44140625 C21 21 21 21 20 24 C19.34 24 18.68 24 18 24 C17.01 26.97 16.02 29.94 15 33 C22.65647079 34.12178733 30.30232994 35.2036893 38 36 C35.10203565 46.30387324 24.58303558 53.07714826 15.90234375 58.25 C6.43547501 63.22642381 -3.11420858 66.19558879 -13.8125 66.0625 C-14.50537109 66.05798828 -15.19824219 66.05347656 -15.91210938 66.04882812 C-17.60811068 66.03713156 -19.30406703 66.01919924 -21 66 C-21.57479464 61.83808931 -22.14427538 57.67549528 -22.70898438 53.51220703 C-22.90155879 52.09794825 -23.09554784 50.68388131 -23.29101562 49.27001953 C-23.57279577 47.22998878 -23.84936988 45.18930718 -24.125 43.1484375 C-24.29257813 41.92302246 -24.46015625 40.69760742 -24.6328125 39.43505859 C-24.9726309 36.25603942 -25.06840372 33.19359852 -25 30 C-23.20841511 29.97303635 -21.41671527 29.95362083 -19.625 29.9375 C-18.62726563 29.92589844 -17.62953125 29.91429687 -16.6015625 29.90234375 C-14 30 -14 30 -12 31 C-9.62876754 31.23029956 -7.25258057 31.41119942 -4.875 31.5625 C-3.59367187 31.64628906 -2.31234375 31.73007813 -0.9921875 31.81640625 C0.48894531 31.90728516 0.48894531 31.90728516 2 32 C1.855625 30.86304688 1.71125 29.72609375 1.5625 28.5546875 C0.39343708 18.96670447 -0.27988841 9.67169942 0 0 Z " fill="#E8A329" transform="translate(219,160)"/>
<path d="M0 0 C2.91046846 1.12051599 5.62777398 2.52951374 8.375 4 C9.11105469 4.3815625 9.84710938 4.763125 10.60546875 5.15625 C12.4093234 6.09331735 14.20547259 7.04519207 16 8 C16.42458959 14.78355932 13.81521694 18.60264334 10 24 C7.4375 26.875 7.4375 26.875 5 29 C4.2575 29.66 3.515 30.32 2.75 31 C-8.0636381 38.86446407 -18.81992446 40.59033318 -32 39 C-40.08654442 36.43942962 -45.51079338 29.97206392 -50 23 C-50 22.34 -50 21.68 -50 21 C-50.66 21 -51.32 21 -52 21 C-52.99 18.03 -53.98 15.06 -55 12 C-54.19780029 11.85377197 -53.39560059 11.70754395 -52.5690918 11.55688477 C-48.94148072 10.8943326 -45.31448754 10.22845674 -41.6875 9.5625 C-40.42486328 9.33240234 -39.16222656 9.10230469 -37.86132812 8.86523438 C-36.65283203 8.64287109 -35.44433594 8.42050781 -34.19921875 8.19140625 C-33.08377686 7.98717041 -31.96833496 7.78293457 -30.8190918 7.57250977 C-27.9383335 7.04671915 -27.9383335 7.04671915 -25 6 C-23.45693088 6.08077438 -21.91514354 6.18782171 -20.375 6.3125 C-15.02374982 6.41390853 -12.25897987 4.65625821 -8.203125 1.3125 C-5.15687824 -0.5022853 -3.5194377 -0.47263432 0 0 Z " fill="#E38940" transform="translate(93,289)"/>
<path d="M0 0 C1.35358503 2.70717007 0.95126377 4.73470068 0.8125 7.75 C0.74612047 13.27941507 1.34006676 15.89643849 5 20 C6.93676615 21.93676615 9.92767716 21.437286 12.5234375 21.44140625 C16.24325007 20.77841126 18.33434617 18.71142532 20.98046875 16.1171875 C23 15 23 15 25.74609375 15.625 C26.81988281 16.07875 27.89367187 16.5325 29 17 C30.28831336 17.50452132 31.57741335 18.00703738 32.8671875 18.5078125 C34.20384182 19.04509512 35.53977255 19.58418113 36.875 20.125 C37.56335938 20.40214844 38.25171875 20.67929688 38.9609375 20.96484375 C40.64126501 21.64164233 42.32072342 22.32059803 44 23 C42.65605448 31.38858303 37.67386082 39.28134299 30.875 44.3125 C28 46 28 46 26 46 C25.67 46.99 25.34 47.98 25 49 C15.84576119 52.31023814 4.21592456 54.106105 -5 50 C-14.35345393 43.61701915 -20.03211412 34.42886819 -24 24 C-24 23.34 -24 22.68 -24 22 C-23.02417969 21.79503906 -22.04835938 21.59007812 -21.04296875 21.37890625 C-19.77066406 21.10949219 -18.49835937 20.84007812 -17.1875 20.5625 C-15.92292969 20.29566406 -14.65835938 20.02882812 -13.35546875 19.75390625 C-10.02954587 19.06572114 -10.02954587 19.06572114 -7 18 C-4.66700175 17.96045766 -2.33291811 17.95598268 0 18 C-0.33 17.175 -0.66 16.35 -1 15.5 C-2.36952418 10.70666536 -2.90322425 6.25806062 -1 1.5 C-0.67 1.005 -0.34 0.51 0 0 Z " fill="#E6A229" transform="translate(53,173)"/>
<path d="M0 0 C4.73821347 3.3668567 7.89166938 7.4445865 11.3125 12.0625 C11.86228516 12.78244141 12.41207031 13.50238281 12.97851562 14.24414062 C13.49736328 14.93830078 14.01621094 15.63246094 14.55078125 16.34765625 C15.02169189 16.97679932 15.49260254 17.60594238 15.9777832 18.25415039 C17 20 17 20 17 23 C15.56298828 24.22680664 15.56298828 24.22680664 13.5703125 25.41015625 C12.85746094 25.84263672 12.14460938 26.27511719 11.41015625 26.72070312 C10.65605469 27.16349609 9.90195313 27.60628906 9.125 28.0625 C7.64708018 28.94695461 6.17045795 29.8335821 4.6953125 30.72265625 C4.03547363 31.11203369 3.37563477 31.50141113 2.69580078 31.90258789 C0.84228577 33.01806319 0.84228577 33.01806319 -1 35 C-2.32 35 -3.64 35 -5 35 C-6.81518555 33.02807617 -6.81518555 33.02807617 -8.63671875 30.29296875 C-9.29607422 29.31392578 -9.95542969 28.33488281 -10.63476562 27.32617188 C-11.31216797 26.29041016 -11.98957031 25.25464844 -12.6875 24.1875 C-13.72100586 22.65125977 -13.72100586 22.65125977 -14.77539062 21.08398438 C-19.83362856 13.49911431 -19.83362856 13.49911431 -21 10 C-21.66 10 -22.32 10 -23 10 C-23 17.59 -23 25.18 -23 33 C-26.29794288 34.09931429 -29.09403136 34.28679007 -32.5625 34.5 C-38.39137669 34.88132838 -44.19297383 35.3711285 -50 36 C-50.49077821 34.08627365 -50.96681642 32.16876751 -51.4375 30.25 C-51.83775391 28.64898437 -51.83775391 28.64898437 -52.24609375 27.015625 C-53.38280786 21.7517424 -53.62944183 16.36122015 -54 11 C-52.98687744 10.82871582 -51.97375488 10.65743164 -50.92993164 10.48095703 C-47.133149 9.83842064 -43.33688912 9.19283934 -39.54077148 8.54638672 C-37.90484254 8.26822562 -36.2687772 7.99086539 -34.63256836 7.71435547 C-24.13676515 5.98097086 -24.13676515 5.98097086 -13.71875 3.84375 C-10.59119231 3.13413607 -7.62641162 2.64448549 -4.4375 2.375 C-3.59058594 2.30023438 -2.74367187 2.22546875 -1.87109375 2.1484375 C-0.94490234 2.07496094 -0.94490234 2.07496094 0 2 C0 1.34 0 0.68 0 0 Z " fill="#E6A22A" transform="translate(89,87)"/>
<path d="M0 0 C0.80016414 37.59950759 0.80016414 37.59950759 -4 52 C-6.89589652 52.02706445 -9.79153795 52.04687029 -12.6875 52.0625 C-13.91243164 52.07506836 -13.91243164 52.07506836 -15.16210938 52.08789062 C-15.95810547 52.09111328 -16.75410156 52.09433594 -17.57421875 52.09765625 C-18.30213623 52.10289307 -19.03005371 52.10812988 -19.7800293 52.11352539 C-22 52 -22 52 -27 51 C-27.33 35.82 -27.66 20.64 -28 5 C-22.46350694 2.62721726 -19.1640139 1.49968167 -13.4375 0.8125 C-11.54837891 0.57466797 -11.54837891 0.57466797 -9.62109375 0.33203125 C-6.38253558 0.03507608 -3.24809611 -0.0243014 0 0 Z " fill="#7FC041" transform="translate(243,236)"/>
<path d="M0 0 C12 0 12 0 25 4 C25 19.84 25 35.68 25 52 C17.08 52 9.16 52 1 52 C0.67 34.84 0.34 17.68 0 0 Z " fill="#80C241" transform="translate(175,235)"/>
<path d="M0 0 C0.33 0 0.66 0 1 0 C1 2.31 1 4.62 1 7 C2.02996094 7.02578125 3.05992187 7.0515625 4.12109375 7.078125 C12.55889428 7.38033275 20.4158308 8.31499295 28.59667969 10.41259766 C34.45314435 11.91262227 40.32390099 13.00944051 46.29296875 13.96044922 C50.36486644 14.62948905 54.10224949 15.66492145 58 17 C60.75065232 17.16857483 60.75065232 17.16857483 63 17 C62.40688872 21.84374212 61.38082963 26.3242639 60 31 C40.999065 32.16036244 22.02663364 32.10543318 3 32 C2.49167358 28.16772354 1.99485826 24.33403696 1.5 20.5 C1.35691406 19.42234375 1.21382813 18.3446875 1.06640625 17.234375 C0.32383191 11.43522303 -0.17027502 5.84610901 0 0 Z " fill="#E7A329" transform="translate(267,192)"/>
<path d="M0 0 C1.75570312 0.01353516 1.75570312 0.01353516 3.546875 0.02734375 C4.43890625 0.03894531 5.3309375 0.05054688 6.25 0.0625 C6.25 0.7225 6.25 1.3825 6.25 2.0625 C7.054375 2.1553125 7.054375 2.1553125 7.875 2.25 C11.40376838 3.45721023 13.57338724 5.50226171 16.25 8.0625 C18.81576921 13.32539179 19.24066634 18.31817115 18.25 24.0625 C15.48550957 30.07883784 11.57853361 34.9686132 5.359375 37.51171875 C0.35225129 38.81913439 -3.96447998 38.63386641 -8.875 37.0625 C-13.59702382 33.77761387 -17.90791886 29.58874342 -19.75 24.0625 C-19.8690686 22.27370198 -19.92522113 20.4802144 -19.9375 18.6875 C-19.95167969 17.75164062 -19.96585937 16.81578125 -19.98046875 15.8515625 C-19.57142969 10.90149655 -17.87776651 7.76937874 -14.375 4.3125 C-13.78976563 3.71953125 -13.20453125 3.1265625 -12.6015625 2.515625 C-8.76196078 -0.49773332 -4.73376475 -0.04733765 0 0 Z " fill="#133251" transform="translate(142.75,160.9375)"/>
<path d="M0 0 C2.86810222 1.88875024 3.74595249 2.97504971 4.56640625 6.28515625 C5.83012515 14.19763044 5.98046329 21.1300403 1.5546875 28.03125 C-3.154663 33.99484962 -8.94586311 38.35987312 -16.5625 39.5625 C-20 39 -20 39 -22.8125 36.1875 C-27.43971448 29.44498748 -27.91485195 24.9808606 -26.4375 16.9375 C-23.37383013 10.67695722 -18.8287827 4.88585513 -13 1 C-8.66746238 -0.44417921 -4.52769694 -0.53441669 0 0 Z " fill="#163650" transform="translate(306,57)"/>
<path d="M0 0 C5.61971831 2.85915493 5.61971831 2.85915493 7 7 C7.8921712 15.05212742 7.42803627 21.07925402 2.7890625 27.83984375 C-0.60910518 31.94287154 -5.62430671 37.38916026 -11.05078125 38.37109375 C-15.27084768 38.49499898 -18.12711602 38.39887404 -21.5 35.6875 C-25.66987595 31.20488335 -25.33783291 26.93762258 -25.28125 21.07421875 C-24.53704762 12.93967325 -19.24020875 6.86344029 -13.3125 1.625 C-8.78225941 -0.59738218 -4.95857645 -0.81169566 0 0 Z " fill="#153650" transform="translate(154,57)"/>
<path d="M0 0 C7.41903913 -0.82433768 12.1367889 1.45939602 18 6 C20.21429435 8.31162597 20.93815236 9.49270209 21.328125 12.69140625 C21.30234375 13.63886719 21.2765625 14.58632812 21.25 15.5625 C21.23453125 16.51253906 21.2190625 17.46257812 21.203125 18.44140625 C21 21 21 21 20 24 C19.34 24 18.68 24 18 24 C17.773125 24.70125 17.54625 25.4025 17.3125 26.125 C15.66158712 29.74128535 13.7091165 32.08769976 11 35 C10.34 35 9.68 35 9 35 C9 35.99 9 36.98 9 38 C7.02 38 5.04 38 3 38 C-0.58165209 12.23623663 -0.58165209 12.23623663 0 0 Z " fill="#1F3C4E" transform="translate(219,160)"/>
<path d="M0 0 C0 0.66 0 1.32 0 2 C0.70125 2.165 1.4025 2.33 2.125 2.5 C7.13024692 5.11143318 10.06595034 9.67603345 12.14453125 14.84765625 C14.27495099 22.69810709 14.18813531 30.67383991 10.5 38 C6.10116267 45.03813973 -0.0690432 49.53866858 -8 52 C-11.38128513 52.35503494 -14.61483298 52.27559731 -18 52 C-19.15048828 51.91298828 -19.15048828 51.91298828 -20.32421875 51.82421875 C-27.17658308 50.83164242 -31.44914198 47.03518628 -36 42 C-41.35612604 34.75258652 -43.13336631 26.86195995 -42 18 C-39.40746815 9.45471296 -33.64915193 3.32237252 -26.02734375 -1.16015625 C-17.48370488 -4.93198861 -8.35682646 -3.46653542 0 0 Z M-35 9 C-36.38619097 11.34069617 -37.14462553 13.38356044 -38 16 C-38.33 16.99 -38.66 17.98 -39 19 C-39.82500728 27.50936081 -39.48264672 34.20628558 -34 41 C-28.15410035 47.37178602 -22.80510351 49.93295769 -14.125 50.375 C-6.83502616 50.21965809 -0.15346585 47.15346585 5 42 C10.46857745 34.480706 11.83765634 28.28813054 11 19 C9.45148692 11.7805809 6.33159188 7.58304642 0.29296875 3.40625 C-12.04885133 -4.16283898 -25.40466131 -2.01770654 -35 9 Z " fill="#573A51" transform="translate(156,155)"/>
<path d="M0 0 C1.43859375 -0.00386719 1.43859375 -0.00386719 2.90625 -0.0078125 C5.5 0.125 5.5 0.125 8.5 1.125 C8.5 3.105 8.5 5.085 8.5 7.125 C2.56561592 10.20208804 -1.79873464 11.61236475 -8.5 11.125 C-8.5 7.825 -8.5 4.525 -8.5 1.125 C-5.41493912 0.09664637 -3.2305728 -0.00868434 0 0 Z " fill="#1F3657" transform="translate(285.5,293.875)"/>
<path d="M0 0 C1.30324219 -0.00386719 1.30324219 -0.00386719 2.6328125 -0.0078125 C4.875 0.125 4.875 0.125 6.875 1.125 C6.875 2.775 6.875 4.425 6.875 6.125 C1.2924808 9.45075612 -2.62186791 10.58950943 -9.125 10.125 C-9.125 7.155 -9.125 4.185 -9.125 1.125 C-5.77952081 0.2886302 -3.38211732 -0.01009587 0 0 Z " fill="#193750" transform="translate(223.125,90.875)"/>
<path d="M0 0 C2.12472576 -0.05386629 4.24983652 -0.09273071 6.375 -0.125 C7.55835937 -0.14820313 8.74171875 -0.17140625 9.9609375 -0.1953125 C13 0 13 0 15 2 C14.8125 4.5 14.8125 4.5 14 7 C10.71508627 9.18994248 9.16904361 9.35277339 5.3125 9.625 C4.31863281 9.69976562 3.32476562 9.77453125 2.30078125 9.8515625 C1.54152344 9.90054688 0.78226563 9.94953125 0 10 C0 6.7 0 3.4 0 0 Z " fill="#26404C" transform="translate(62,58)"/>
<path d="M0 0 C4.62 0 9.24 0 14 0 C14 0.33 14 0.66 14 1 C9.71 1 5.42 1 1 1 C1.13277344 2.258125 1.26554687 3.51625 1.40234375 4.8125 C2.51500322 15.53525614 3.42862614 26.23411349 4 37 C3.34 37 2.68 37 2 37 C1.34 39.31 0.68 41.62 0 44 C-0.33 44 -0.66 44 -1 44 C-0.98952637 43.43603516 -0.97905273 42.87207031 -0.96826172 42.29101562 C-0.92625522 39.69405719 -0.90053398 37.09717061 -0.875 34.5 C-0.85824219 33.613125 -0.84148437 32.72625 -0.82421875 31.8125 C-0.7827795 26.17676212 -1.39558714 21.40699768 -3 16 C-2.34 16.33 -1.68 16.66 -1 17 C-0.67 11.39 -0.34 5.78 0 0 Z " fill="#847B37" transform="translate(262,142)"/>
<path d="M0 0 C0.66 0.33 1.32 0.66 2 1 C1.95875 2.03125 1.9175 3.0625 1.875 4.125 C1.86322229 10.67340675 2.04793697 19.09587394 5 25 C5.13415472 27.6723621 5.04318541 30.32250488 5 33 C4.34 32.67 3.68 32.34 3 32 C2.34 36.29 1.68 40.58 1 45 C0.67 45 0.34 45 0 45 C0.01047363 44.18845459 0.02094727 43.37690918 0.03173828 42.54077148 C0.0734865 38.83971289 0.09938613 35.13870399 0.125 31.4375 C0.14175781 30.16068359 0.15851563 28.88386719 0.17578125 27.56835938 C0.20840117 21.28902566 0.11076342 15.92509573 -2 10 C-2 9.01 -2 8.02 -2 7 C-1.67 7.33 -1.34 7.66 -1 8 C-0.67 5.36 -0.34 2.72 0 0 Z " fill="#D8B21D" transform="translate(180,40)"/>
<path d="M0 0 C0.625 2.3125 0.625 2.3125 1 5 C-1.24887569 8.37331354 -2.2387963 8.8358179 -6 10 C-7.32 10 -8.64 10 -10 10 C-10 7.03 -10 4.06 -10 1 C-6.78548731 -0.60725635 -3.56387464 -0.05748185 0 0 Z " fill="#313C5F" transform="translate(283,254)"/>
<path d="M0 0 C1 1 1 1 1.375 3.3125 C1 6 1 6 -1.1875 8.25 C-3.92813365 9.95528316 -5.82426667 10.63705905 -9 11 C-9.08096803 9.54257537 -9.13917774 8.08387193 -9.1875 6.625 C-9.22230469 5.81289063 -9.25710937 5.00078125 -9.29296875 4.1640625 C-9.19628906 3.44992188 -9.09960938 2.73578125 -9 2 C-5.55892734 -0.29404844 -4.03160191 -0.26293056 0 0 Z " fill="#19384F" transform="translate(219,51)"/>
<path d="M0 0 C0.33 0 0.66 0 1 0 C1.11593506 0.70084717 1.23187012 1.40169434 1.35131836 2.1237793 C1.8791866 5.31182911 2.40833053 8.49966592 2.9375 11.6875 C3.11990234 12.79029297 3.30230469 13.89308594 3.49023438 15.02929688 C3.66748047 16.09599609 3.84472656 17.16269531 4.02734375 18.26171875 C4.18968506 19.24100342 4.35202637 20.22028809 4.51928711 21.22924805 C4.83759753 23.06393821 5.18244505 24.89423772 5.5546875 26.71875 C6.2297349 30.17688756 6.05961726 33.48258145 6 37 C5.67 37 5.34 37 5 37 C4.80664062 35.94039062 4.61328125 34.88078125 4.4140625 33.7890625 C4.15144936 32.40096447 3.88840614 31.01294776 3.625 29.625 C3.43550781 28.57699219 3.43550781 28.57699219 3.2421875 27.5078125 C2.49856679 23.32740535 2.49856679 23.32740535 0 20 C-0.6328125 17.6171875 -0.6328125 17.6171875 -1.125 14.875 C-1.29257813 13.96492187 -1.46015625 13.05484375 -1.6328125 12.1171875 C-1.75398437 11.41851562 -1.87515625 10.71984375 -2 10 C-1.34 10 -0.68 10 0 10 C0 6.7 0 3.4 0 0 Z " fill="#4B5247" transform="translate(187,151)"/>
<path d="M0 0 C0 0.33 0 0.66 0 1 C-1.93939453 1.18175781 -1.93939453 1.18175781 -3.91796875 1.3671875 C-12.75469503 2.21255062 -21.53804521 3.11904012 -30.30078125 4.56640625 C-32.67864541 4.94837864 -35.04357977 5.24398977 -37.4375 5.5 C-41.00105242 5.88354288 -41.00105242 5.88354288 -44.25 7.125 C-47.08641106 8.02749443 -48.27077066 8.04970359 -51 7 C-49.35 6.67 -47.7 6.34 -46 6 C-46 5.34 -46 4.68 -46 4 C-41.82080187 2.84364256 -37.68542588 2.73525282 -33.375 2.5625 C-28.40276517 2.33402196 -23.60979703 2.09149862 -18.75 0.9375 C-12.57739385 -0.52443304 -6.30309929 -0.16348096 0 0 Z " fill="#021627" transform="translate(71,16)"/>
<path d="M0 0 C1.74932744 3.08951616 2.40727892 5.73376794 2.8515625 9.24609375 C2.98046875 10.24833984 3.109375 11.25058594 3.2421875 12.28320312 C3.43167969 13.84458008 3.43167969 13.84458008 3.625 15.4375 C3.7590625 16.47455078 3.893125 17.51160156 4.03125 18.58007812 C4.59879041 23.08854966 5.07700648 27.44994373 5 32 C2.73587856 28.60381785 2.47082615 26.44865048 1.9375 22.4375 C1.45048905 18.07188045 1.45048905 18.07188045 0 14 C-0.66 14.66 -1.32 15.32 -2 16 C-1.85890014 13.89551062 -1.71195825 11.7914123 -1.5625 9.6875 C-1.48128906 8.51574219 -1.40007812 7.34398438 -1.31640625 6.13671875 C-1 3 -1 3 0 0 Z " fill="#555B44" transform="translate(183,69)"/>
<path d="M0 0 C2.6852436 4.83343848 3.12024457 9.49252732 3.31640625 14.95703125 C3.35830078 16.06884766 3.40019531 17.18066406 3.44335938 18.32617188 C3.48267578 19.47666016 3.52199219 20.62714844 3.5625 21.8125 C3.60568359 22.98232422 3.64886719 24.15214844 3.69335938 25.35742188 C3.79918279 28.23817031 3.90126825 31.11900123 4 34 C3.67 34 3.34 34 3 34 C2.0998164 29.20406383 1.70560238 24.48600386 1.4375 19.625 C1.39431641 18.88894531 1.35113281 18.15289062 1.30664062 17.39453125 C1.20156201 15.59651932 1.10037907 13.79828042 1 12 C0.34 12 -0.32 12 -1 12 C-1.66 13.32 -2.32 14.64 -3 16 C-3.33 15.34 -3.66 14.68 -4 14 C-3.3520776 12.65745809 -2.68166794 11.32572661 -2 10 C-1.57336714 8.26186612 -1.19923141 6.51011335 -0.875 4.75 C-0.70742188 3.85796875 -0.53984375 2.9659375 -0.3671875 2.046875 C-0.24601562 1.37140625 -0.12484375 0.6959375 0 0 Z " fill="#455247" transform="translate(264,175)"/>
<path d="M0 0 C10.89761308 -0.2071352 21.27133239 -0.15729044 32 2 C32 2.66 32 3.32 32 4 C29.79154015 3.68839539 27.58323749 3.37567654 25.375 3.0625 C23.53035156 2.80146484 23.53035156 2.80146484 21.6484375 2.53515625 C18.42443816 2.06225699 15.21187824 1.54848998 12 1 C12 1.66 12 2.32 12 3 C9.03 3 6.06 3 3 3 C3 2.34 3 1.68 3 1 C2.01 0.67 1.02 0.34 0 0 Z " fill="#031E2D" transform="translate(166,339)"/>
<path d="M0 0 C0.33 0.66 0.66 1.32 1 2 C1.66 2 2.32 2 3 2 C4.02835363 5.08506088 4.13368434 7.2694272 4.125 10.5 C4.12757813 11.4590625 4.13015625 12.418125 4.1328125 13.40625 C4 16 4 16 3 19 C2.34 19 1.68 19 1 19 C1 19.66 1 20.32 1 21 C1.99 21.33 2.98 21.66 4 22 C2.68 22 1.36 22 0 22 C0 14.74 0 7.48 0 0 Z " fill="#032248" transform="translate(317,245)"/>
<path d="M0 0 C1.20366211 0.00483398 1.20366211 0.00483398 2.43164062 0.00976562 C3.68170898 0.02233398 3.68170898 0.02233398 4.95703125 0.03515625 C6.22450195 0.04192383 6.22450195 0.04192383 7.51757812 0.04882812 C9.6015928 0.06060222 11.68557102 0.07853735 13.76953125 0.09765625 C13.76953125 0.42765625 13.76953125 0.75765625 13.76953125 1.09765625 C12.609375 1.18853516 12.609375 1.18853516 11.42578125 1.28125 C9.25846117 1.45560124 7.09180484 1.6383449 4.92578125 1.828125 C3.1567948 1.97918944 1.38626106 2.11779182 -0.38671875 2.2109375 C-5.87844557 2.61816301 -10.49723796 4.71393683 -15.49609375 6.94140625 C-17.75943446 7.89847604 -19.83455508 8.59565529 -22.23046875 9.09765625 C-22.23046875 8.10765625 -22.23046875 7.11765625 -22.23046875 6.09765625 C-20.58046875 6.09765625 -18.93046875 6.09765625 -17.23046875 6.09765625 C-16.90046875 5.10765625 -16.57046875 4.11765625 -16.23046875 3.09765625 C-14.26953125 2.40234375 -14.26953125 2.40234375 -11.85546875 1.97265625 C-1.18552628 -0.00840799 -1.18552628 -0.00840799 0 0 Z " fill="#021524" transform="translate(293.23046875,15.90234375)"/>
<path d="M0 0 C1.91302307 3.26613695 2.35674661 5.99445248 2.625 9.75 C2.69976562 10.73484375 2.77453125 11.7196875 2.8515625 12.734375 C2.92503906 13.85585938 2.92503906 13.85585938 3 15 C2.34 14.01 1.68 13.02 1 12 C-0.88474003 13.88474003 -0.69332 17.02746402 -1.0625 19.5625 C-1.32740234 21.35880859 -1.32740234 21.35880859 -1.59765625 23.19140625 C-1.73042969 24.11824219 -1.86320313 25.04507812 -2 26 C-2.33 26 -2.66 26 -3 26 C-3.16589226 19.97258105 -2.57114133 14.42505207 -1.5 8.5 C-1.35691406 7.67757813 -1.21382812 6.85515625 -1.06640625 6.0078125 C-0.71693088 4.00415373 -0.35931844 2.00191702 0 0 Z " fill="#3C5459" transform="translate(243,259)"/>
<path d="M0 0 C0 0.66 0 1.32 0 2 C0.66 2.33 1.32 2.66 2 3 C-1.02049342 3.19613594 -4.04105658 3.38214855 -7.0625 3.5625 C-7.91005859 3.61857422 -8.75761719 3.67464844 -9.63085938 3.73242188 C-14.60337287 4.02040528 -19.09776245 3.89796753 -24 3 C-20.36219961 0.57479974 -17.7486926 0.80505095 -13.5625 0.9375 C-8.87964068 1.04278423 -4.52600179 0 0 0 Z " fill="#032332" transform="translate(125,341)"/>
<path d="M0 0 C0 0.66 0 1.32 0 2 C-0.69480469 2.40863281 -1.38960938 2.81726562 -2.10546875 3.23828125 C-5.72335247 5.44025906 -8.379317 8.16165266 -11.3125 11.1875 C-11.86228516 11.74630859 -12.41207031 12.30511719 -12.97851562 12.88085938 C-14.32363696 14.24937412 -15.66246643 15.62406833 -17 17 C-17 12.43370825 -14.23009906 10.48798974 -11.23828125 7.23046875 C-3.98248687 0 -3.98248687 0 0 0 Z " fill="#C1A324" transform="translate(280,38)"/>
<path d="M0 0 C0 0.33 0 0.66 0 1 C-0.97839844 1.18175781 -1.95679688 1.36351563 -2.96484375 1.55078125 C-11.72340837 3.19453671 -11.72340837 3.19453671 -20.25 5.75 C-24 7 -24 7 -27 6 C-25.68 5.67 -24.36 5.34 -23 5 C-23 4.34 -23 3.68 -23 3 C-16.38461352 -0.30769324 -7.29292478 -0.28599705 0 0 Z " fill="#041323" transform="translate(208,17)"/>
<path d="M0 0 C0.66 0.33 1.32 0.66 2 1 C-3.28 6.28 -8.56 11.56 -14 17 C-14 12.95607032 -12.51908749 11.99868382 -9.8125 9.0625 C-9.03519531 8.20785156 -8.25789063 7.35320312 -7.45703125 6.47265625 C-5.09786332 4.09848566 -2.65532732 2.0327639 0 0 Z " fill="#C2A423" transform="translate(48,144)"/>
<path d="M0 0 C0.99 0.33 1.98 0.66 3 1 C2.95875 2.093125 2.9175 3.18625 2.875 4.3125 C2.67925334 8.08892229 2.67925334 8.08892229 5 11 C5.14245897 13.76655324 5.18769445 16.42653306 5.125 19.1875 C5.11597656 19.93708984 5.10695313 20.68667969 5.09765625 21.45898438 C5.07412578 23.30612654 5.03825561 25.15310412 5 27 C4.67 27 4.34 27 4 27 C3.95101563 25.95199219 3.90203125 24.90398437 3.8515625 23.82421875 C3.77651857 22.44528646 3.70097143 21.0663815 3.625 19.6875 C3.5940625 18.99720703 3.563125 18.30691406 3.53125 17.59570312 C3.31875081 13.93009211 3.08066139 12.12099208 1 9 C0.5859375 6.73828125 0.5859375 6.73828125 0.375 4.3125 C0.30023438 3.50425781 0.22546875 2.69601563 0.1484375 1.86328125 C0.09945313 1.24839844 0.05046875 0.63351563 0 0 Z " fill="#020F24" transform="translate(343,47)"/>
<path d="M0 0 C0.804375 0.30744141 0.804375 0.30744141 1.625 0.62109375 C9.66848033 3.38604011 17.57785798 3.69697008 26 4 C26 4.33 26 4.66 26 5 C23.45884191 5.25049421 20.91944416 5.47583433 18.375 5.6875 C17.66214844 5.76033203 16.94929688 5.83316406 16.21484375 5.90820312 C11.2424621 6.29595766 8.41387348 5.56620551 4 3 C0.7633037 2.29241674 0.7633037 2.29241674 -2 2 C-1.34 1.34 -0.68 0.68 0 0 Z " fill="#031829" transform="translate(51,339)"/>
<path d="M0 0 C0.99 0.33 1.98 0.66 3 1 C3.042721 2.66611905 3.04063832 4.33382885 3 6 C2.67 6.33 2.34 6.66 2 7 C1.76572222 9.01594582 1.58663876 11.038474 1.4375 13.0625 C1.31181641 14.71958984 1.31181641 14.71958984 1.18359375 16.41015625 C1.12300781 17.26480469 1.06242187 18.11945313 1 19 C0.67 19 0.34 19 0 19 C-1.09587955 14.75448144 -0.92865836 11.0407161 -0.5625 6.6875 C-0.46066406 5.43324219 -0.35882813 4.17898437 -0.25390625 2.88671875 C-0.17011719 1.93410156 -0.08632813 0.98148438 0 0 Z " fill="#031731" transform="translate(343,155)"/>
<path d="M0 0 C0.66 0.33 1.32 0.66 2 1 C0.89718873 2.27200971 -0.20730769 3.54255853 -1.3125 4.8125 C-1.92738281 5.52019531 -2.54226562 6.22789062 -3.17578125 6.95703125 C-6.44911047 10.6228796 -6.44911047 10.6228796 -8 12 C-8.66 12 -9.32 12 -10 12 C-8.52278578 8.54798361 -6.56205999 6.35038064 -3.875 3.75 C-3.15054688 3.04359375 -2.42609375 2.3371875 -1.6796875 1.609375 C-1.12539063 1.07828125 -0.57109375 0.5471875 0 0 Z " fill="#C08050" transform="translate(53,244)"/>
<path d="M0 0 C-3 1.5 -3 1.5 -6 3 C-6 5.64 -6 8.28 -6 11 C-6.99 11 -7.98 11 -9 11 C-9.08096803 9.54257537 -9.13917774 8.08387193 -9.1875 6.625 C-9.22230469 5.81289063 -9.25710937 5.00078125 -9.29296875 4.1640625 C-9.19628906 3.44992188 -9.09960938 2.73578125 -9 2 C-5.5647952 -0.29013653 -4.014669 -0.17842973 0 0 Z " fill="#716F3B" transform="translate(219,51)"/>
<path d="M0 0 C0.66 0.33 1.32 0.66 2 1 C-2.29 5.29 -6.58 9.58 -11 14 C-11 9.82308582 -8.77013484 7.86318847 -6 5 C-4.05228995 3.24842937 -2.05675499 1.62627139 0 0 Z " fill="#BB9F26" transform="translate(124,40)"/>
<path d="M0 0 C2.97 0.33 5.94 0.66 9 1 C9 1.99 9 2.98 9 4 C10.65 4 12.3 4 14 4 C14 4.66 14 5.32 14 6 C14.66 6.33 15.32 6.66 16 7 C12.44219804 6.39009109 9.3171411 5.4216319 6 4 C6 3.34 6 2.68 6 2 C4.02 2 2.04 2 0 2 C0 1.34 0 0.68 0 0 Z " fill="#041D2E" transform="translate(310,18)"/>
<path d="M0 0 C0.66 0.33 1.32 0.66 2 1 C2 5.62 2 10.24 2 15 C-2 10 -2 10 -2 7 C-1.67 7.33 -1.34 7.66 -1 8 C-0.67 5.36 -0.34 2.72 0 0 Z " fill="#877C38" transform="translate(180,40)"/>
<path d="M0 0 C0 0.33 0 0.66 0 1 C-1.65 1 -3.3 1 -5 1 C-5 1.66 -5 2.32 -5 3 C-8.96 2.67 -12.92 2.34 -17 2 C-17 1.67 -17 1.34 -17 1 C-11.29014022 0.25983299 -5.75813575 -0.10469338 0 0 Z " fill="#011828" transform="translate(345,120)"/>
<path d="M0 0 C3.67952474 4.90603299 3.29124516 6.17509683 3 12 C2.01 11.67 1.02 11.34 0 11 C0 7.37 0 3.74 0 0 Z " fill="#C3A523" transform="translate(182,61)"/>
<path d="M0 0 C0.33 0 0.66 0 1 0 C1.125 7.625 1.125 7.625 0 11 C-0.66 11 -1.32 11 -2 11 C-2 11.66 -2 12.32 -2 13 C-1.01 13.33 -0.02 13.66 1 14 C-0.32 14 -1.64 14 -3 14 C-2.40380045 9.13103697 -1.43023178 4.67209049 0 0 Z " fill="#02192B" transform="translate(320,253)"/>
<path d="M0 0 C0.99 0.33 1.98 0.66 3 1 C2.67 3.97 2.34 6.94 2 10 C1.01 9.67 0.02 9.34 -1 9 C-0.67 6.03 -0.34 3.06 0 0 Z M1 3 C2 5 2 5 2 5 Z " fill="#021C28" transform="translate(343,215)"/>
<path d="M0 0 C0.66 0.99 1.32 1.98 2 3 C1.5390625 5.04296875 1.5390625 5.04296875 0.625 7.1875 C0.32851562 7.90292969 0.03203125 8.61835938 -0.2734375 9.35546875 C-0.51320313 9.89816406 -0.75296875 10.44085938 -1 11 C-3 8 -3 8 -2.75 5.5 C-2 3 -2 3 0 0 Z " fill="#6C3D51" transform="translate(119,163)"/>
<path d="M0 0 C2.64 0 5.28 0 8 0 C7.60196439 2.88575819 7.20990931 3.82189513 4.9375 5.75 C4.298125 6.1625 3.65875 6.575 3 7 C2.34 6.67 1.68 6.34 1 6 C1.99 5.01 2.98 4.02 4 3 C2.68 2.67 1.36 2.34 0 2 C0 1.34 0 0.68 0 0 Z " fill="#061421" transform="translate(24,138)"/>
<path d="M0 0 C0.66 0.33 1.32 0.66 2 1 C1.525625 1.5775 1.05125 2.155 0.5625 2.75 C-0.9484867 4.92582084 -1.54036151 6.42602448 -2 9 C-3.5 7.625 -3.5 7.625 -5 6 C-5 5.34 -5 4.68 -5 4 C-3.37373596 2.61767557 -1.7074998 1.28062485 0 0 Z " fill="#4A5645" transform="translate(91,78)"/>
<path d="M0 0 C0.33 0.66 0.66 1.32 1 2 C-0.11375 1.9071875 -0.11375 1.9071875 -1.25 1.8125 C-4.49319223 2.03362674 -5.48507049 3.07188738 -8 5 C-8.99 4.67 -9.98 4.34 -11 4 C-7.26280719 0.48264206 -5.13496308 -0.47767098 0 0 Z " fill="#B97C4F" transform="translate(93,289)"/>
<path d="M0 0 C0.66 0.33 1.32 0.66 2 1 C1.04882866 2.1725131 0.08882991 3.33787015 -0.875 4.5 C-1.40867187 5.1496875 -1.94234375 5.799375 -2.4921875 6.46875 C-2.98976563 6.9740625 -3.48734375 7.479375 -4 8 C-4.66 8 -5.32 8 -6 8 C-4.55746343 4.63408134 -2.66735273 2.48952921 0 0 Z " fill="#4A5645" transform="translate(291,59)"/>
<path d="M0 0 C2.3125 0.875 2.3125 0.875 3.3125 2.875 C0.0125 3.205 -3.2875 3.535 -6.6875 3.875 C-3.388111 -0.15758656 -3.388111 -0.15758656 0 0 Z " fill="#EB934B" transform="translate(91.6875,290.125)"/>
<path d="M0 0 C0.33 0 0.66 0 1 0 C1.33 3.96 1.66 7.92 2 12 C1.01 11.34 0.02 10.68 -1 10 C-0.67 6.7 -0.34 3.4 0 0 Z " fill="#02102A" transform="translate(16,84)"/>
<path d="M0 0 C0.66 0 1.32 0 2 0 C2.66 1.98 3.32 3.96 4 6 C2.35 6 0.7 6 -1 6 C-0.67 4.02 -0.34 2.04 0 0 Z " fill="#494F49" transform="translate(256,102)"/>
<path d="M0 0 C0.33 0 0.66 0 1 0 C1.05391993 1.79133978 1.09275571 3.58313899 1.125 5.375 C1.14820313 6.37273437 1.17140625 7.37046875 1.1953125 8.3984375 C1 11 1 11 -1 13 C-2.51403812 8.15507803 -1.36602172 4.7408989 0 0 Z " fill="#052030" transform="translate(344,81)"/>
<path d="" fill="#00007C" transform="translate(0,0)"/>
</svg>
