<svg width="1440" height="945" viewBox="0 0 1440 945" fill="none" xmlns="http://www.w3.org/2000/svg">
<path d="M449.387 46.1876C548.677 38.6477 637.702 -8.87513 736.739 1.46498C835.742 11.8018 899.223 83.9977 995.681 103.226C1174.75 138.922 1459.94 40.7636 1537.43 161.075C1577.16 222.761 1519.71 276.151 1441.04 328.04L1441.04 723.199L1441.04 722.45L-71.063 722.45L-71.0629 98.792C-40.3067 82.2221 -8.47067 67.6867 21.649 55.7666C147.947 5.78374 305.192 57.1372 449.387 46.1876Z" fill="#123251"/>
<path d="M948.959 915.447C849.68 919.971 760.723 947.134 661.672 941.522C562.654 935.912 499.07 895.146 402.585 884.489C223.464 864.706 -61.5845 921.066 -139.244 853.062C-179.06 818.194 -121.693 787.786 -43.0967 758.174L-43.6597 534.598L1468.44 530.791L1469.33 884.318C1438.6 893.788 1406.78 902.107 1376.68 908.94C1250.46 937.591 1093.14 908.877 948.959 915.447Z" fill="#123251"/>
</svg>
